<svg width="14" height="12" viewBox="0 0 14 12" fill="none" xmlns="http://www.w3.org/2000/svg">
<path d="M5.375 4.90674H12.875C12.9438 4.90674 13 4.85049 13 4.78174V3.90674C13 3.83799 12.9438 3.78174 12.875 3.78174H5.375C5.30625 3.78174 5.25 3.83799 5.25 3.90674V4.78174C5.25 4.85049 5.30625 4.90674 5.375 4.90674ZM5.25 8.09424C5.25 8.16299 5.30625 8.21924 5.375 8.21924H12.875C12.9438 8.21924 13 8.16299 13 8.09424V7.21924C13 7.15049 12.9438 7.09424 12.875 7.09424H5.375C5.30625 7.09424 5.25 7.15049 5.25 7.21924V8.09424ZM13.125 0.500488H0.875C0.80625 0.500488 0.75 0.556738 0.75 0.625488V1.50049C0.75 1.56924 0.80625 1.62549 0.875 1.62549H13.125C13.1938 1.62549 13.25 1.56924 13.25 1.50049V0.625488C13.25 0.556738 13.1938 0.500488 13.125 0.500488ZM13.125 10.3755H0.875C0.80625 10.3755 0.75 10.4317 0.75 10.5005V11.3755C0.75 11.4442 0.80625 11.5005 0.875 11.5005H13.125C13.1938 11.5005 13.25 11.4442 13.25 11.3755V10.5005C13.25 10.4317 13.1938 10.3755 13.125 10.3755ZM0.803125 6.1083L3.24531 8.03174C3.33594 8.10361 3.47031 8.03955 3.47031 7.92393V4.07705C3.47031 3.96143 3.3375 3.89736 3.24531 3.96924L0.803125 5.89268C0.786703 5.90544 0.773415 5.92179 0.764275 5.94048C0.755134 5.95916 0.750382 5.97969 0.750382 6.00049C0.750382 6.02129 0.755134 6.04182 0.764275 6.0605C0.773415 6.07918 0.786703 6.09553 0.803125 6.1083Z" fill="#8C8C8C"/>
</svg>
